HIERARCHY
ROOT Hips
{
	OFFSET -3.958830 18.904000 13.208200
	CHANNELS 6 Xposition Yposition Zposition Zrotation Yrotation Xrotation 
	JOINT LHipJoint
	{
		OFFSET 0.000000 0.000000 0.000000
		CHANNELS 3 Zrotation Yrotation Xrotation
		JOINT LeftUpLeg
		{
			OFFSET 1.800000 -1.400000 0.085000
			CHANNELS 3 Zrotation Yrotation Xrotation
			JOINT LeftLeg
			{
				OFFSET 2.215000 -6.000000 0.000000
				CHANNELS 3 Zrotation Yrotation Xrotation
				JOINT LeftFoot
				{
					OFFSET 2.500000 -6.900000 0.000000
					CHANNELS 3 Zrotation Yrotation Xrotation
					JOINT LeftToeBase
					{
						OFFSET 0.200000 -0.500000 1.950000
						CHANNELS 3 Zrotation Yrotation Xrotation
						End Site
						{
							OFFSET 0.000000 0.000000 0.000000
						}
					}
				}
			}
		}
	}
	JOINT RHipJoint
	{
		OFFSET 0.000000 0.000000 0.000000
		CHANNELS 3 Zrotation Yrotation Xrotation
		JOINT RightUpLeg
		{
			OFFSET -1.800000 -1.400000 0.085000
			CHANNELS 3 Zrotation Yrotation Xrotation
			JOINT RightLeg
			{
				OFFSET -2.215000 -6.000000 0.000000
				CHANNELS 3 Zrotation Yrotation Xrotation
				JOINT RightFoot
				{
					OFFSET -2.500000 -6.900000 0.000000
					CHANNELS 3 Zrotation Yrotation Xrotation
					JOINT RightToeBase
					{
						OFFSET -0.200000 -0.500000 1.950000
						CHANNELS 3 Zrotation Yrotation Xrotation
						End Site
						{
							OFFSET 0.000000 0.000000 0.000000
						}
					}
				}
			}
		}
	}
	JOINT LowerBack
	{
		OFFSET 0.000000 0.000000 0.000000
		CHANNELS 3 Zrotation Yrotation Xrotation
		JOINT Spine
		{
			OFFSET -0.087000 1.940000 -0.288900
			CHANNELS 3 Zrotation Yrotation Xrotation
			JOINT Spine1
			{
				OFFSET 0.000000 1.950000 0.060000
				CHANNELS 3 Zrotation Yrotation Xrotation
				JOINT Neck
				{
					OFFSET 0.000000 0.000000 0.000000
					CHANNELS 3 Zrotation Yrotation Xrotation
					JOINT Neck1
					{
						OFFSET 0.000000 1.600000 0.340000
						CHANNELS 3 Zrotation Yrotation Xrotation
						JOINT Head
						{
							OFFSET 0.000000 1.667000 -0.240000
							CHANNELS 3 Zrotation Yrotation Xrotation
							End Site
							{
								OFFSET 0.000000 0.000000 0.000000
							}
						}
					}
				}
				JOINT LeftShoulder
				{
					OFFSET 0.000000 0.000000 0.000000
					CHANNELS 3 Zrotation Yrotation Xrotation
					JOINT LeftArm
					{
						OFFSET 2.700000 1.550000 -0.730000
						CHANNELS 3 Zrotation Yrotation Xrotation
						JOINT LeftForeArm
						{
							OFFSET 5.450000 0.000000 0.000000
							CHANNELS 3 Zrotation Yrotation Xrotation
							JOINT LeftHand
							{
								OFFSET 3.450000 0.000000 0.000000
								CHANNELS 3 Zrotation Yrotation Xrotation
								JOINT LeftHandIndex1
								{
									OFFSET 0.750000 0.000000 0.000000
									CHANNELS 3 Zrotation Yrotation Xrotation
									End Site
									{
										OFFSET 0.000000 0.000000 0.000000
									}
								}
							}
						}
					}
				}
				JOINT RightShoulder
				{
					OFFSET 0.000000 0.000000 0.000000
					CHANNELS 3 Zrotation Yrotation Xrotation
					JOINT RightArm
					{
						OFFSET -2.700000 1.550000 -0.730000
						CHANNELS 3 Zrotation Yrotation Xrotation
						JOINT RightForeArm
						{
							OFFSET -5.450000 0.000000 0.000000
							CHANNELS 3 Zrotation Yrotation Xrotation
							JOINT RightHand
							{
								OFFSET -3.450000 0.000000 0.000000
								CHANNELS 3 Zrotation Yrotation Xrotation
								JOINT RightHandIndex1
								{
									OFFSET -0.750000 0.000000 0.000000
									CHANNELS 3 Zrotation Yrotation Xrotation
									End Site
									{
										OFFSET 0.000000 0.000000 0.000000
									}
								}
							}
						}
					}
				}
			}
		}
	}
}
MOTION
Frames: 10
Frame Time: 0.016667
-1.838740 18.353160 -3.616030 11.868092 -26.378918 -14.104634 -15.927118 10.778428 6.488063 43.046830 6.731894 -32.239329 -94.745821 64.106731 27.585662 2.125484 11.795562 0.754885 0.488210 0.141680 0.516840 17.954017 -9.573614 1.604350 -22.206734 0.345056 -9.862253 8.808163 -5.941203 9.754363 -0.520759 -3.573272 3.116470 -0.086590 -0.269740 0.025010 -2.195643 -0.803178 -9.318000 -19.082366 7.356876 21.451864 7.100413 6.179715 -5.673458 1.672103 -0.667831 -17.979149 -7.538536 -4.993609 60.301467 8.566630 -8.813340 -21.964720 -9.890107 -22.903625 8.115373 -8.268632 -6.902924 -0.162251 -107.793801 -70.943430 81.933837 -3.220571 2.642470 0.949180 -0.433820 0.338520 0.080480 8.546570 28.543139 9.487292 2.158306 12.832172 -3.829174 108.854095 70.128658 80.037210 2.809911 0.066368 -0.111630 0.153690 -0.171550 -0.282200 
-1.867200 18.259560 -3.617300 12.435525 -26.809918 -14.947466 -15.903534 10.699490 6.494456 42.324488 7.245566 -32.423815 -100.992790 58.469459 21.212944 2.238414 12.073606 0.711112 0.480190 0.129680 0.514740 17.970464 -9.613267 1.614887 -22.277237 0.307897 -9.206588 8.603631 -5.886816 9.447294 -0.526574 -3.613783 3.120196 -0.090510 -0.260660 -0.000850 -2.258855 -0.711848 -9.336827 -18.723928 7.889050 21.961001 6.350572 6.348625 -5.167158 1.639804 -1.034336 -18.122039 -8.270140 -4.869646 59.581529 9.014150 -9.308480 -21.829300 -9.386849 -22.754859 8.253457 -8.894610 -7.283031 -0.215159 -95.413378 -75.503526 73.793391 -3.292696 2.504215 0.947250 -0.439720 0.325540 0.087680 8.144878 28.897760 9.709448 2.432096 12.513721 -4.409574 108.021439 71.667421 80.463080 2.874305 0.380070 -0.127760 0.172530 -0.180280 -0.279470 
-1.959210 18.064460 -3.640260 13.922370 -27.026070 -16.128810 -15.944509 10.272496 6.913493 42.308797 7.455810 -31.623438 -106.036359 48.769871 14.194468 2.365849 12.193691 0.720199 0.499290 0.184590 0.482890 17.990857 -9.463786 1.485492 -22.353766 0.176394 -7.768073 8.065061 -5.731344 8.911372 -0.530345 -3.715768 3.123669 -0.058860 -0.233990 -0.030140 -2.292343 -0.631795 -9.450482 -19.912053 8.842458 22.466830 6.296745 6.523813 -4.093533 1.379887 -1.770891 -17.661913 -9.599331 -4.880859 56.284003 9.679510 -10.277820 -21.132910 -9.121944 -22.444703 8.072272 -8.879945 -7.269335 -0.941555 -77.278228 -78.445376 60.960868 -3.125905 3.039901 0.880250 -0.427040 0.297510 0.133580 8.466629 29.439446 9.691213 1.179467 11.953540 -5.507285 106.706421 74.267670 81.877057 2.975486 0.974111 -0.113860 0.180850 -0.223940 -0.232550 
-2.061180 17.843090 -3.650990 15.034717 -27.782295 -17.829594 -15.937823 10.065374 7.113314 42.727550 7.538293 -30.139325 -105.935334 44.927941 12.692108 2.329998 12.103030 0.750075 0.495110 0.187940 0.472960 18.022057 -9.467224 1.411787 -22.050939 0.031713 -5.688286 7.684957 -5.795727 8.958662 -0.557050 -3.860460 3.109324 -0.044950 -0.221510 -0.060440 -2.367882 -0.483930 -9.502994 -20.288350 9.516769 23.738246 5.618212 7.071276 -3.790442 1.404851 -2.356616 -17.516222 -10.561037 -4.735299 54.699728 9.825840 -10.333120 -22.047300 -9.399006 -22.356714 7.674133 -8.898015 -5.759364 -2.700851 -60.754774 -79.837325 48.578872 -2.975291 3.258287 0.884050 -0.428970 0.283440 0.143300 8.780002 30.199619 9.930455 0.737898 11.237210 -6.869338 105.379810 77.016622 83.927159 3.035735 1.898000 -0.141060 0.211630 -0.229910 -0.232140 
-2.157210 17.601680 -3.650050 15.282931 -29.366971 -20.146381 -15.870691 10.203654 7.135910 43.473987 7.777138 -28.172098 -102.353985 44.874686 14.620706 2.336035 12.029746 0.748361 0.516170 0.235180 0.437070 18.064180 -9.657644 1.339145 -20.835746 -0.159656 -3.191309 6.561312 -5.923431 10.566751 -0.601584 -3.981653 3.085246 -0.037810 -0.219070 -0.039080 -2.451682 -0.523952 -9.573456 -18.889475 9.362225 26.098943 4.263846 7.618000 -2.564496 1.381068 -3.819460 -18.039271 -13.574451 -3.588904 53.274228 12.057300 -10.764370 -23.852460 -9.911339 -21.382435 6.567309 -8.564571 -4.297412 -4.622657 -45.113359 -82.144878 36.672979 -2.860023 3.349577 0.859330 -0.445220 0.297280 0.166200 9.629036 30.215570 12.242403 -2.265018 14.163378 -2.902970 86.292334 88.401841 73.149802 3.326724 2.320881 -0.093730 0.190890 -0.239240 -0.190340 
-2.259680 17.351490 -3.651660 15.593285 -29.905674 -21.622195 -15.756485 10.265783 7.078888 43.246407 7.700543 -27.246356 -97.151309 45.785752 17.709257 2.399112 12.021708 0.722067 0.527870 0.263550 0.397940 18.129577 -9.995011 1.286429 -20.017783 -0.136872 -1.925082 6.159622 -6.403435 13.940898 -0.629531 -4.209931 3.008984 -0.061570 -0.237150 -0.010790 -2.681053 -0.094983 -9.509898 -17.639473 9.407379 27.898487 3.095558 8.310627 -2.473625 0.858277 -5.052755 -18.971763 -15.521028 -2.771723 53.185089 14.295810 -11.627210 -22.996840 -10.356451 -22.231875 6.713340 -8.144055 -1.823361 -6.181357 -31.899701 -84.992994 26.503746 -2.758660 3.435692 0.807910 -0.457670 0.302360 0.182090 11.175232 32.349639 13.353443 -2.952095 11.234561 -5.666379 -121.647650 88.764609 -128.922133 2.394468 -1.592690 -0.016660 0.111090 -0.259250 -0.145210 
-2.356180 17.090020 -3.661060 15.265668 -29.902571 -21.853771 -15.724561 10.237536 7.191422 42.912294 7.375865 -28.121541 -92.878096 45.889752 20.072513 2.429421 12.109379 0.705501 0.484060 0.222810 0.370330 18.164670 -10.165128 1.155623 -18.540919 0.064374 -1.685746 5.653062 -6.858546 18.154346 -0.626622 -4.411236 2.958237 -0.094840 -0.215410 -0.002380 -2.763507 0.144926 -9.482253 -16.909895 9.310565 29.219417 2.472143 8.525279 -3.640912 0.843635 -4.962985 -18.664073 -14.618292 -3.700584 51.713410 12.664270 -11.775460 -21.577900 -11.773064 -23.463537 6.848005 -7.863226 0.215057 -7.838699 0.292303 -86.987474 -1.567084 -2.712834 3.231574 0.766370 -0.427160 0.284410 0.179930 12.407656 33.849608 12.353430 -2.281279 9.327891 -9.953506 10.964121 89.196189 9.470020 2.144104 -1.843113 -0.007460 0.099610 -0.248830 -0.130680 
-2.452720 16.845480 -3.652620 14.613607 -31.264451 -22.883001 -15.667633 10.174717 7.232070 43.793430 7.567636 -26.665745 -89.342418 44.968461 21.289047 2.391847 12.162449 0.690106 0.456090 0.187160 0.334890 18.217384 -10.338962 1.143533 -16.910053 0.356466 -0.958094 5.278191 -7.207867 21.790015 -0.646229 -4.717442 2.862117 -0.092470 -0.170460 -0.014590 -2.923174 0.533592 -9.483708 -14.553340 8.980856 30.699284 0.598526 9.359029 -3.307369 0.575802 -5.138877 -18.472234 -14.157441 -4.715818 50.213742 12.599080 -12.987080 -20.077770 -13.822674 -25.020395 6.511892 -6.454943 0.988844 -9.206701 22.417256 -86.666848 -21.021966 -2.681185 2.964367 0.736910 -0.399610 0.238960 0.186640 14.924056 35.802274 12.021474 -1.829443 8.387564 -13.307465 -30.077451 87.025952 -24.661533 2.005873 -1.248664 -0.032620 0.116680 -0.228980 -0.119740 
-2.514650 16.627410 -3.661320 12.853549 -32.119514 -23.341199 -15.619270 10.112076 7.323670 44.137454 7.217802 -26.498454 -84.937722 44.337614 23.415217 2.377694 12.275189 0.656646 0.416460 0.171640 0.266150 18.275256 -10.400982 1.157428 -14.551971 0.661121 -0.266102 4.806544 -7.489456 25.606357 -0.662430 -5.065164 2.772270 -0.076780 -0.110520 -0.048150 -3.087702 0.713636 -9.535240 -10.964668 7.627597 32.842308 -1.757783 9.771781 -1.473274 0.375655 -5.550014 -18.328158 -13.844967 -5.988079 46.948176 12.842840 -14.288240 -18.961990 -15.218310 -27.105894 5.851552 -5.719711 1.213105 -11.750201 49.888603 -86.480796 -44.591588 -2.583124 2.174832 0.663270 -0.357190 0.167950 0.190960 16.609404 38.182442 12.224484 -1.941132 7.997553 -16.171543 -52.524723 82.397540 -37.672237 1.932545 -0.593224 -0.050910 0.143820 -0.200840 -0.092000 
-2.564210 16.449170 -3.679820 10.426730 -32.796066 -24.057470 -15.561317 10.095424 7.392587 43.761183 6.344496 -26.273831 -80.708741 43.009324 25.272329 2.378361 12.394259 0.613764 0.424950 0.193880 0.268530 18.328105 -10.395587 1.248560 -11.678364 0.930600 1.051463 4.185605 -7.739276 29.440656 -0.772587 -5.448388 2.655596 -0.064110 -0.109950 -0.061470 -3.245343 0.712361 -9.649175 -7.061334 5.733663 35.630719 -4.065693 9.954068 1.787014 0.778364 -6.095371 -19.973752 -14.224604 -6.596989 46.093323 12.877630 -14.785190 -19.766810 -15.289814 -29.682582 5.567471 -5.884945 1.069443 -14.330282 68.513430 -83.949259 -57.638529 -2.378254 0.920574 0.655160 -0.365490 0.173300 0.199320 16.141388 41.342007 13.806139 -1.393790 7.880555 -18.540676 -65.061785 74.974539 -41.222071 2.381561 -0.755327 -0.049120 0.163900 -0.212640 -0.080330 
